<svg width="35" height="42" viewBox="0 0 35 42" fill="none" xmlns="http://www.w3.org/2000/svg">
<path fill-rule="evenodd" clip-rule="evenodd" d="M33 16.7234C33 18.4587 32.1362 20.7924 30.5416 23.5043C28.9822 26.1563 26.8751 28.9211 24.7253 31.4536C22.5822 33.9781 20.4334 36.229 18.8175 37.8511C18.322 38.3485 17.8776 38.7857 17.5 39.1525C17.1224 38.7857 16.678 38.3485 16.1825 37.8511C14.5666 36.229 12.4178 33.9781 10.2747 31.4536C8.12494 28.9211 6.01779 26.1563 4.45843 23.5043C2.8638 20.7924 2 18.4587 2 16.7234C2 8.78315 8.83439 2.16101 17.5 2.16101C26.1656 2.16101 33 8.78315 33 16.7234ZM35 16.7234C35 25.8705 17.5 41.912 17.5 41.912C17.5 41.912 0 25.8705 0 16.7234C0 7.57624 7.83502 0.161011 17.5 0.161011C27.165 0.161011 35 7.57624 35 16.7234ZM25.0455 16.7234C25.0455 19.935 21.9435 23.0046 17.5 23.0046C13.0566 23.0046 9.95459 19.935 9.95459 16.7234C9.95459 13.5117 13.0566 10.4422 17.5 10.4422C21.9435 10.4422 25.0455 13.5117 25.0455 16.7234ZM27.0455 16.7234C27.0455 21.2969 22.7719 25.0046 17.5 25.0046C12.2282 25.0046 7.95459 21.2969 7.95459 16.7234C7.95459 12.1498 12.2282 8.44218 17.5 8.44218C22.7719 8.44218 27.0455 12.1498 27.0455 16.7234Z" fill="#FFA800"/>
</svg>
